<mxfile host="app.diagrams.net" modified="2024-05-30T00:39:36.324Z" agent="Mozilla/5.0 (Windows NT 10.0; Win64; x64) AppleWebKit/537.36 (KHTML, like Gecko) Chrome/124.0.0.0 Safari/537.36" version="24.4.0" etag="6VOeSVDEF8APgfjH7vF4" type="github">
  <diagram name="第 1 页" id="cuX83Zz7LstaSbaiO-IE">
    <mxGraphModel>
      <root>
        <mxCell id="0" />
        <mxCell id="1" parent="0" />
      </root>
    </mxGraphModel>
  </diagram>
</mxfile>
